<svg xmlns="http://www.w3.org/2000/svg" width="20" height="12" viewBox="0 0 24 14" fill="currentColor" aria-hidden="true">
  <path d="M13.2 14s.4-.1.6-.3c.2-.2.2-.7.2-.7s0-2 .9-2.3c.9-.3 2 2 3.2 2.9.9.7 1.6.5 1.6.5l3.2-.1s1.7-.1.9-1.4c-.1-.1-.5-1.1-2.6-3.1-2.2-2.1-1.9-1.7.7-5.3 1.6-2.1 2.2-3.4 2-4-.2-.5-1.4-.4-1.4-.4h-3.6s-.3 0-.4.1c-.2.1-.2.3-.2.3s-.6 1.6-1.4 2.9c-1.7 2.9-2.4 3-2.7 2.9-.6-.4-.5-1.7-.5-2.6 0-2.8.4-4-1.2-4.4-.5-.1-1-.2-2.2-.2-1.6 0-3 0-3.8.4C5.6.4 5 1 5.5 1c.5.1 1.7.3 2.3 1.2.5.9.5 2.8.5 2.8s.3 3.2-1.1 3.5c-.8.2-2-1-3.3-3C2.8 4.1 2.2 2.5 2.2 2.5S2.1 2.3 2 2.2C1.9 2.1 1.7 2 1.7 2H.3S.1 2 0 2.2C0 2.3 0 2.5 0 2.5S2.2 8.5 4.7 11.5C7 14.3 9.7 14 9.7 14h1.3c.4 0 .6-.1.6-.1S13.2 14 13.2 14z"/>
</svg>
