<svg xmlns="http://www.w3.org/2000/svg" width="12" height="20" viewBox="0 0 14 24" fill="currentColor" aria-hidden="true">
  <path d="M7 0C4.6 0 2.7 1.9 2.7 4.3S4.6 8.6 7 8.6s4.3-1.9 4.3-4.3S9.4 0 7 0zm0 5.7c-.8 0-1.4-.6-1.4-1.4S6.2 2.9 7 2.9s1.4.6 1.4 1.4S7.8 5.7 7 5.7zM11.3 12c.6-.9.5-2-.3-2.7-.7-.7-1.8-.7-2.6-.2-.7.4-1.5.7-2.3.7s-1.6-.2-2.3-.7c-.8-.5-1.9-.5-2.6.2-.8.7-.9 1.8-.3 2.7.5.7 1.4 1.3 2.5 1.8L1 18.2c-.7.7-.7 1.9 0 2.6.4.4.8.6 1.3.6.5 0 .9-.2 1.3-.6L7 17.4l3.4 3.4c.7.7 1.9.7 2.6 0 .7-.7.7-1.9 0-2.6l-2.4-2.4 1.1-1.1 1-1c1-.5 1.9-1.1 2.4-1.8z"/>
</svg>
