<?xml version="1.0" encoding="UTF-8"?>
<svg xmlns="http://www.w3.org/2000/svg" xmlns:xlink="http://www.w3.org/1999/xlink" width="3236.74" height="3304.95" viewBox="0 0 3236.74 3304.95">
<defs>
<clipPath id="clip-0">
<path clip-rule="nonzero" d="M 0 2133 L 3236.738281 2133 L 3236.738281 2370 L 0 2370 Z M 0 2133 "/>
</clipPath>
<clipPath id="clip-1">
<path clip-rule="evenodd" d="M 79.320312 2292.53125 C 35.523438 2292.53125 0 2257.019531 0 2213.210938 C 0 2169.421875 35.523438 2133.890625 79.320312 2133.890625 C 140.992188 2133.890625 195.152344 2156.238281 249.3125 2178.558594 C 288.433594 2194.691406 327.566406 2210.839844 359.164062 2210.839844 C 390.777344 2210.839844 429.898438 2194.691406 469.007812 2178.558594 C 523.167969 2156.238281 577.324219 2133.890625 638.984375 2133.890625 C 700.652344 2133.890625 754.800781 2156.238281 808.960938 2178.558594 C 848.070312 2194.691406 887.203125 2210.839844 918.8125 2210.839844 C 950.425781 2210.839844 989.558594 2194.691406 1028.671875 2178.558594 C 1082.820312 2156.238281 1136.988281 2133.890625 1198.648438 2133.890625 C 1260.300781 2133.890625 1314.460938 2156.238281 1368.609375 2178.558594 C 1407.730469 2194.691406 1446.871094 2210.839844 1478.460938 2210.839844 C 1510.089844 2210.839844 1549.210938 2194.691406 1588.328125 2178.558594 C 1642.460938 2156.238281 1696.621094 2133.890625 1758.289062 2133.890625 C 1819.96875 2133.890625 1874.101562 2156.238281 1928.261719 2178.558594 C 1967.371094 2194.691406 2006.5 2210.839844 2038.101562 2210.839844 C 2069.71875 2210.839844 2108.859375 2194.691406 2147.96875 2178.558594 C 2202.128906 2156.238281 2256.289062 2133.890625 2317.960938 2133.890625 C 2379.601562 2133.890625 2433.761719 2156.238281 2487.921875 2178.558594 C 2527.03125 2194.691406 2566.160156 2210.839844 2597.761719 2210.839844 C 2629.378906 2210.839844 2668.519531 2194.691406 2707.628906 2178.558594 C 2761.761719 2156.238281 2815.921875 2133.890625 2877.589844 2133.890625 C 2939.238281 2133.890625 2993.398438 2156.238281 3047.558594 2178.558594 C 3086.660156 2194.691406 3125.800781 2210.839844 3157.421875 2210.839844 C 3201.230469 2210.839844 3236.738281 2246.351562 3236.738281 2290.160156 C 3236.738281 2333.96875 3201.230469 2369.488281 3157.421875 2369.488281 C 3095.78125 2369.488281 3041.589844 2347.128906 2987.460938 2324.808594 C 2948.328125 2308.679688 2909.191406 2292.53125 2877.589844 2292.53125 C 2846 2292.53125 2806.859375 2308.679688 2767.75 2324.808594 C 2713.589844 2347.128906 2659.429688 2369.488281 2597.761719 2369.488281 C 2536.121094 2369.488281 2481.960938 2347.128906 2427.800781 2324.808594 C 2388.691406 2308.679688 2349.550781 2292.53125 2317.960938 2292.53125 C 2286.328125 2292.53125 2247.199219 2308.679688 2208.089844 2324.808594 C 2153.929688 2347.128906 2099.769531 2369.488281 2038.101562 2369.488281 C 1976.449219 2369.488281 1922.289062 2347.128906 1868.140625 2324.808594 C 1829.03125 2308.679688 1789.890625 2292.53125 1758.289062 2292.53125 C 1726.671875 2292.53125 1687.558594 2308.679688 1648.429688 2324.808594 C 1594.289062 2347.128906 1540.121094 2369.488281 1478.460938 2369.488281 C 1416.808594 2369.488281 1362.648438 2347.128906 1308.5 2324.808594 C 1269.378906 2308.679688 1230.261719 2292.53125 1198.648438 2292.53125 C 1167.039062 2292.53125 1127.898438 2308.679688 1088.789062 2324.808594 C 1034.628906 2347.128906 980.484375 2369.488281 918.8125 2369.488281 C 857.15625 2369.488281 802.984375 2347.128906 748.839844 2324.808594 C 709.730469 2308.679688 670.59375 2292.53125 638.984375 2292.53125 C 607.371094 2292.53125 568.238281 2308.679688 529.128906 2324.808594 C 474.996094 2347.128906 420.824219 2369.488281 359.164062 2369.488281 C 297.507812 2369.488281 243.347656 2347.128906 189.1875 2324.808594 C 150.078125 2308.679688 110.945312 2292.53125 79.320312 2292.53125 "/>
</clipPath>
<linearGradient id="linear-pattern-0" gradientUnits="userSpaceOnUse" x1="0.393386" y1="0" x2="0.606635" y2="0" gradientTransform="matrix(-1774.07, 5460.05, -5460.05, -1774.07, 2505.43, -478.39)">
<stop offset="0" stop-color="rgb(30.149841%, 58.732605%, 81.669617%)" stop-opacity="1"/>
<stop offset="0.0625" stop-color="rgb(30.274963%, 58.822632%, 81.724548%)" stop-opacity="1"/>
<stop offset="0.125" stop-color="rgb(30.525208%, 59.005737%, 81.834412%)" stop-opacity="1"/>
<stop offset="0.1875" stop-color="rgb(30.775452%, 59.188843%, 81.944275%)" stop-opacity="1"/>
<stop offset="0.25" stop-color="rgb(31.027222%, 59.371948%, 82.054138%)" stop-opacity="1"/>
<stop offset="0.3125" stop-color="rgb(31.277466%, 59.555054%, 82.164001%)" stop-opacity="1"/>
<stop offset="0.375" stop-color="rgb(31.529236%, 59.738159%, 82.273865%)" stop-opacity="1"/>
<stop offset="0.4375" stop-color="rgb(31.77948%, 59.921265%, 82.383728%)" stop-opacity="1"/>
<stop offset="0.5" stop-color="rgb(32.03125%, 60.10437%, 82.493591%)" stop-opacity="1"/>
<stop offset="0.5625" stop-color="rgb(32.281494%, 60.287476%, 82.603455%)" stop-opacity="1"/>
<stop offset="0.625" stop-color="rgb(32.531738%, 60.469055%, 82.713318%)" stop-opacity="1"/>
<stop offset="0.6875" stop-color="rgb(32.783508%, 60.652161%, 82.823181%)" stop-opacity="1"/>
<stop offset="0.75" stop-color="rgb(33.033752%, 60.835266%, 82.933044%)" stop-opacity="1"/>
<stop offset="0.8125" stop-color="rgb(33.285522%, 61.018372%, 83.042908%)" stop-opacity="1"/>
<stop offset="0.875" stop-color="rgb(33.535767%, 61.201477%, 83.151245%)" stop-opacity="1"/>
<stop offset="0.9375" stop-color="rgb(33.786011%, 61.384583%, 83.261108%)" stop-opacity="1"/>
<stop offset="1" stop-color="rgb(34.037781%, 61.567688%, 83.370972%)" stop-opacity="1"/>
</linearGradient>
<clipPath id="clip-2">
<path clip-rule="nonzero" d="M 0 2601 L 3236.738281 2601 L 3236.738281 2838 L 0 2838 Z M 0 2601 "/>
</clipPath>
<clipPath id="clip-3">
<path clip-rule="evenodd" d="M 79.320312 2760.261719 C 35.523438 2760.261719 0 2724.75 0 2680.941406 C 0 2637.160156 35.523438 2601.621094 79.320312 2601.621094 C 140.992188 2601.621094 195.152344 2623.96875 249.3125 2646.300781 C 288.433594 2662.421875 327.566406 2678.578125 359.164062 2678.578125 C 390.777344 2678.578125 429.898438 2662.421875 469.007812 2646.300781 C 523.167969 2623.96875 577.324219 2601.621094 638.984375 2601.621094 C 700.652344 2601.621094 754.800781 2623.96875 808.960938 2646.300781 C 848.070312 2662.421875 887.203125 2678.578125 918.8125 2678.578125 C 950.425781 2678.578125 989.558594 2662.421875 1028.671875 2646.300781 C 1082.820312 2623.96875 1136.988281 2601.621094 1198.648438 2601.621094 C 1260.300781 2601.621094 1314.460938 2623.96875 1368.609375 2646.300781 C 1407.730469 2662.421875 1446.871094 2678.578125 1478.460938 2678.578125 C 1510.089844 2678.578125 1549.210938 2662.421875 1588.328125 2646.300781 C 1642.460938 2623.96875 1696.621094 2601.621094 1758.289062 2601.621094 C 1819.96875 2601.621094 1874.101562 2623.96875 1928.261719 2646.300781 C 1967.371094 2662.421875 2006.5 2678.578125 2038.101562 2678.578125 C 2069.71875 2678.578125 2108.859375 2662.421875 2147.96875 2646.300781 C 2202.128906 2623.96875 2256.289062 2601.621094 2317.960938 2601.621094 C 2379.601562 2601.621094 2433.761719 2623.96875 2487.921875 2646.300781 C 2527.03125 2662.421875 2566.160156 2678.578125 2597.761719 2678.578125 C 2629.378906 2678.578125 2668.519531 2662.421875 2707.628906 2646.300781 C 2761.761719 2623.96875 2815.921875 2601.621094 2877.589844 2601.621094 C 2939.238281 2601.621094 2993.398438 2623.96875 3047.558594 2646.300781 C 3086.660156 2662.421875 3125.800781 2678.578125 3157.421875 2678.578125 C 3201.230469 2678.578125 3236.738281 2714.089844 3236.738281 2757.898438 C 3236.738281 2801.710938 3201.230469 2837.21875 3157.421875 2837.21875 C 3095.78125 2837.21875 3041.589844 2814.871094 2987.460938 2792.539062 C 2948.328125 2776.421875 2909.191406 2760.261719 2877.589844 2760.261719 C 2846 2760.261719 2806.859375 2776.421875 2767.75 2792.539062 C 2713.589844 2814.871094 2659.429688 2837.21875 2597.761719 2837.21875 C 2536.121094 2837.21875 2481.960938 2814.871094 2427.800781 2792.539062 C 2388.691406 2776.421875 2349.550781 2760.261719 2317.960938 2760.261719 C 2286.328125 2760.261719 2247.199219 2776.421875 2208.089844 2792.539062 C 2153.929688 2814.871094 2099.769531 2837.21875 2038.101562 2837.21875 C 1976.449219 2837.21875 1922.289062 2814.871094 1868.140625 2792.539062 C 1829.03125 2776.421875 1789.890625 2760.261719 1758.289062 2760.261719 C 1726.671875 2760.261719 1687.558594 2776.421875 1648.429688 2792.539062 C 1594.289062 2814.871094 1540.121094 2837.21875 1478.460938 2837.21875 C 1416.808594 2837.21875 1362.648438 2814.871094 1308.5 2792.539062 C 1269.378906 2776.421875 1230.261719 2760.261719 1198.648438 2760.261719 C 1167.039062 2760.261719 1127.898438 2776.421875 1088.789062 2792.539062 C 1034.628906 2814.871094 980.484375 2837.21875 918.8125 2837.21875 C 857.15625 2837.21875 802.984375 2814.871094 748.839844 2792.539062 C 709.730469 2776.421875 670.59375 2760.261719 638.984375 2760.261719 C 607.371094 2760.261719 568.238281 2776.421875 529.128906 2792.539062 C 474.996094 2814.871094 420.824219 2837.21875 359.164062 2837.21875 C 297.507812 2837.21875 243.347656 2814.871094 189.1875 2792.539062 C 150.078125 2776.421875 110.945312 2760.261719 79.320312 2760.261719 "/>
</clipPath>
<linearGradient id="linear-pattern-1" gradientUnits="userSpaceOnUse" x1="0.404527" y1="0" x2="0.595474" y2="0" gradientTransform="matrix(14806.8, -6285.13, 6285.13, 14806.8, -5785.04, 5861.99)">
<stop offset="0" stop-color="rgb(15.644836%, 49.917603%, 75.733948%)" stop-opacity="1"/>
<stop offset="0.0625" stop-color="rgb(15.487671%, 49.861145%, 75.694275%)" stop-opacity="1"/>
<stop offset="0.125" stop-color="rgb(15.174866%, 49.74823%, 75.614929%)" stop-opacity="1"/>
<stop offset="0.1875" stop-color="rgb(14.860535%, 49.636841%, 75.534058%)" stop-opacity="1"/>
<stop offset="0.25" stop-color="rgb(14.547729%, 49.523926%, 75.454712%)" stop-opacity="1"/>
<stop offset="0.3125" stop-color="rgb(14.233398%, 49.411011%, 75.375366%)" stop-opacity="1"/>
<stop offset="0.375" stop-color="rgb(13.920593%, 49.299622%, 75.296021%)" stop-opacity="1"/>
<stop offset="0.4375" stop-color="rgb(13.606262%, 49.186707%, 75.216675%)" stop-opacity="1"/>
<stop offset="0.5" stop-color="rgb(13.293457%, 49.075317%, 75.137329%)" stop-opacity="1"/>
<stop offset="0.5625" stop-color="rgb(12.979126%, 48.962402%, 75.057983%)" stop-opacity="1"/>
<stop offset="0.625" stop-color="rgb(12.666321%, 48.849487%, 74.977112%)" stop-opacity="1"/>
<stop offset="0.6875" stop-color="rgb(12.35199%, 48.738098%, 74.897766%)" stop-opacity="1"/>
<stop offset="0.75" stop-color="rgb(12.039185%, 48.625183%, 74.81842%)" stop-opacity="1"/>
<stop offset="0.8125" stop-color="rgb(11.724854%, 48.513794%, 74.739075%)" stop-opacity="1"/>
<stop offset="0.875" stop-color="rgb(11.412048%, 48.400879%, 74.659729%)" stop-opacity="1"/>
<stop offset="0.9375" stop-color="rgb(11.097717%, 48.287964%, 74.580383%)" stop-opacity="1"/>
<stop offset="1" stop-color="rgb(10.784912%, 48.176575%, 74.501038%)" stop-opacity="1"/>
</linearGradient>
<clipPath id="clip-4">
<path clip-rule="nonzero" d="M 0 3069 L 3236.738281 3069 L 3236.738281 3304.949219 L 0 3304.949219 Z M 0 3069 "/>
</clipPath>
<clipPath id="clip-5">
<path clip-rule="evenodd" d="M 79.320312 3228 C 35.523438 3228 0 3192.480469 0 3148.671875 C 0 3104.859375 35.523438 3069.351562 79.320312 3069.351562 C 140.992188 3069.351562 195.164062 3091.699219 249.3125 3114.03125 C 288.433594 3130.160156 327.566406 3146.308594 359.164062 3146.308594 C 390.777344 3146.308594 429.898438 3130.160156 469.007812 3114.03125 C 523.152344 3091.699219 577.3125 3069.351562 638.984375 3069.351562 C 700.652344 3069.351562 754.8125 3091.699219 808.960938 3114.03125 C 848.070312 3130.160156 887.203125 3146.308594 918.8125 3146.308594 C 950.425781 3146.308594 989.558594 3130.160156 1028.671875 3114.03125 C 1082.820312 3091.699219 1136.96875 3069.351562 1198.648438 3069.351562 C 1260.300781 3069.351562 1314.480469 3091.699219 1368.609375 3114.03125 C 1407.730469 3130.160156 1446.871094 3146.308594 1478.460938 3146.308594 C 1510.089844 3146.308594 1549.210938 3130.160156 1588.328125 3114.03125 C 1642.460938 3091.699219 1696.621094 3069.351562 1758.289062 3069.351562 C 1819.96875 3069.351562 1874.128906 3091.699219 1928.261719 3114.03125 C 1967.371094 3130.160156 2006.5 3146.308594 2038.101562 3146.308594 C 2069.71875 3146.308594 2108.859375 3130.160156 2147.96875 3114.03125 C 2202.128906 3091.699219 2256.289062 3069.351562 2317.960938 3069.351562 C 2379.601562 3069.351562 2433.789062 3091.699219 2487.921875 3114.03125 C 2527.03125 3130.160156 2566.160156 3146.308594 2597.761719 3146.308594 C 2629.378906 3146.308594 2668.519531 3130.160156 2707.628906 3114.03125 C 2761.761719 3091.699219 2815.949219 3069.351562 2877.589844 3069.351562 C 2939.238281 3069.351562 2993.398438 3091.699219 3047.558594 3114.03125 C 3086.691406 3130.160156 3125.828125 3146.308594 3157.421875 3146.308594 C 3201.230469 3146.308594 3236.738281 3181.820312 3236.738281 3225.628906 C 3236.738281 3269.441406 3201.230469 3304.949219 3157.421875 3304.949219 C 3095.78125 3304.949219 3041.589844 3282.601562 2987.460938 3260.269531 C 2948.328125 3244.148438 2909.191406 3228 2877.589844 3228 C 2846 3228 2806.859375 3244.148438 2767.75 3260.269531 C 2713.589844 3282.601562 2659.429688 3304.949219 2597.761719 3304.949219 C 2536.121094 3304.949219 2481.960938 3282.601562 2427.800781 3260.269531 C 2388.691406 3244.148438 2349.550781 3228 2317.960938 3228 C 2286.359375 3228 2247.199219 3244.148438 2208.089844 3260.269531 C 2153.929688 3282.601562 2099.769531 3304.949219 2038.101562 3304.949219 C 1976.449219 3304.949219 1922.289062 3282.601562 1868.140625 3260.269531 C 1829.03125 3244.148438 1789.890625 3228 1758.289062 3228 C 1726.699219 3228 1687.558594 3244.148438 1648.429688 3260.269531 C 1594.289062 3282.601562 1540.121094 3304.949219 1478.460938 3304.949219 C 1416.808594 3304.949219 1362.648438 3282.601562 1308.5 3260.269531 C 1269.378906 3244.148438 1230.238281 3228 1198.648438 3228 C 1167.039062 3228 1127.898438 3244.148438 1088.789062 3260.269531 C 1034.628906 3282.601562 980.484375 3304.949219 918.8125 3304.949219 C 857.15625 3304.949219 802.984375 3282.601562 748.839844 3260.269531 C 709.714844 3244.148438 670.582031 3228 638.984375 3228 C 607.386719 3228 568.238281 3244.148438 529.128906 3260.269531 C 474.996094 3282.601562 420.824219 3304.949219 359.164062 3304.949219 C 297.507812 3304.949219 243.347656 3282.601562 189.1875 3260.269531 C 150.078125 3244.148438 110.945312 3228 79.320312 3228 "/>
</clipPath>
<linearGradient id="linear-pattern-2" gradientUnits="userSpaceOnUse" x1="0.393361" y1="0" x2="0.606619" y2="0" gradientTransform="matrix(-1774.01, 5459.85, -5459.85, -1774.01, 2505.36, 457.28)">
<stop offset="0" stop-color="rgb(30.148315%, 58.731079%, 81.669617%)" stop-opacity="1"/>
<stop offset="0.0625" stop-color="rgb(30.273438%, 58.822632%, 81.724548%)" stop-opacity="1"/>
<stop offset="0.125" stop-color="rgb(30.525208%, 59.005737%, 81.834412%)" stop-opacity="1"/>
<stop offset="0.1875" stop-color="rgb(30.775452%, 59.188843%, 81.944275%)" stop-opacity="1"/>
<stop offset="0.25" stop-color="rgb(31.027222%, 59.371948%, 82.054138%)" stop-opacity="1"/>
<stop offset="0.3125" stop-color="rgb(31.277466%, 59.555054%, 82.164001%)" stop-opacity="1"/>
<stop offset="0.375" stop-color="rgb(31.52771%, 59.738159%, 82.273865%)" stop-opacity="1"/>
<stop offset="0.4375" stop-color="rgb(31.77948%, 59.921265%, 82.383728%)" stop-opacity="1"/>
<stop offset="0.5" stop-color="rgb(32.029724%, 60.102844%, 82.493591%)" stop-opacity="1"/>
<stop offset="0.5625" stop-color="rgb(32.281494%, 60.28595%, 82.603455%)" stop-opacity="1"/>
<stop offset="0.625" stop-color="rgb(32.531738%, 60.469055%, 82.713318%)" stop-opacity="1"/>
<stop offset="0.6875" stop-color="rgb(32.783508%, 60.652161%, 82.823181%)" stop-opacity="1"/>
<stop offset="0.75" stop-color="rgb(33.033752%, 60.835266%, 82.933044%)" stop-opacity="1"/>
<stop offset="0.8125" stop-color="rgb(33.283997%, 61.018372%, 83.041382%)" stop-opacity="1"/>
<stop offset="0.875" stop-color="rgb(33.535767%, 61.201477%, 83.151245%)" stop-opacity="1"/>
<stop offset="0.9375" stop-color="rgb(33.786011%, 61.384583%, 83.261108%)" stop-opacity="1"/>
<stop offset="1" stop-color="rgb(34.037781%, 61.567688%, 83.370972%)" stop-opacity="1"/>
</linearGradient>
<clipPath id="clip-6">
<path clip-rule="nonzero" d="M 1007 271 L 2230 271 L 2230 1829 L 1007 1829 Z M 1007 271 "/>
</clipPath>
<clipPath id="clip-7">
<path clip-rule="evenodd" d="M 1618.378906 1828.808594 C 1955.628906 1828.808594 2229.019531 1555.429688 2229.019531 1218.171875 C 2229.019531 937.089844 1890.800781 552.960938 1727.851562 316.828125 C 1667.628906 256.621094 1569.121094 256.621094 1508.921875 316.828125 C 1345.949219 552.960938 1007.71875 937.089844 1007.71875 1218.171875 C 1007.71875 1555.429688 1281.128906 1828.808594 1618.378906 1828.808594 "/>
</clipPath>
<linearGradient id="linear-pattern-3" gradientUnits="userSpaceOnUse" x1="0.00838297" y1="0" x2="1.083291" y2="0" gradientTransform="matrix(1488.79, -631.956, 631.956, 1488.79, 815.53, 1410.74)">
<stop offset="0" stop-color="rgb(26.052856%, 53.645325%, 78.375244%)" stop-opacity="1"/>
<stop offset="0.0078125" stop-color="rgb(25.942993%, 53.605652%, 78.346252%)" stop-opacity="1"/>
<stop offset="0.015625" stop-color="rgb(25.721741%, 53.527832%, 78.289795%)" stop-opacity="1"/>
<stop offset="0.0234375" stop-color="rgb(25.502014%, 53.448486%, 78.234863%)" stop-opacity="1"/>
<stop offset="0.03125" stop-color="rgb(25.280762%, 53.369141%, 78.178406%)" stop-opacity="1"/>
<stop offset="0.0390625" stop-color="rgb(25.059509%, 53.289795%, 78.121948%)" stop-opacity="1"/>
<stop offset="0.046875" stop-color="rgb(24.839783%, 53.210449%, 78.067017%)" stop-opacity="1"/>
<stop offset="0.0546875" stop-color="rgb(24.61853%, 53.132629%, 78.010559%)" stop-opacity="1"/>
<stop offset="0.0625" stop-color="rgb(24.398804%, 53.053284%, 77.954102%)" stop-opacity="1"/>
<stop offset="0.0703125" stop-color="rgb(24.177551%, 52.973938%, 77.897644%)" stop-opacity="1"/>
<stop offset="0.078125" stop-color="rgb(23.956299%, 52.894592%, 77.842712%)" stop-opacity="1"/>
<stop offset="0.0859375" stop-color="rgb(23.736572%, 52.815247%, 77.786255%)" stop-opacity="1"/>
<stop offset="0.09375" stop-color="rgb(23.51532%, 52.737427%, 77.729797%)" stop-opacity="1"/>
<stop offset="0.101562" stop-color="rgb(23.295593%, 52.658081%, 77.674866%)" stop-opacity="1"/>
<stop offset="0.109375" stop-color="rgb(23.074341%, 52.578735%, 77.618408%)" stop-opacity="1"/>
<stop offset="0.117188" stop-color="rgb(22.853088%, 52.49939%, 77.561951%)" stop-opacity="1"/>
<stop offset="0.125" stop-color="rgb(22.633362%, 52.420044%, 77.507019%)" stop-opacity="1"/>
<stop offset="0.132812" stop-color="rgb(22.412109%, 52.342224%, 77.450562%)" stop-opacity="1"/>
<stop offset="0.140625" stop-color="rgb(22.192383%, 52.262878%, 77.394104%)" stop-opacity="1"/>
<stop offset="0.148437" stop-color="rgb(21.97113%, 52.183533%, 77.339172%)" stop-opacity="1"/>
<stop offset="0.15625" stop-color="rgb(21.749878%, 52.104187%, 77.282715%)" stop-opacity="1"/>
<stop offset="0.164062" stop-color="rgb(21.530151%, 52.024841%, 77.226257%)" stop-opacity="1"/>
<stop offset="0.171875" stop-color="rgb(21.308899%, 51.947021%, 77.1698%)" stop-opacity="1"/>
<stop offset="0.179687" stop-color="rgb(21.089172%, 51.867676%, 77.114868%)" stop-opacity="1"/>
<stop offset="0.1875" stop-color="rgb(20.86792%, 51.78833%, 77.058411%)" stop-opacity="1"/>
<stop offset="0.195312" stop-color="rgb(20.646667%, 51.708984%, 77.001953%)" stop-opacity="1"/>
<stop offset="0.203125" stop-color="rgb(20.426941%, 51.629639%, 76.947021%)" stop-opacity="1"/>
<stop offset="0.210938" stop-color="rgb(20.205688%, 51.551819%, 76.890564%)" stop-opacity="1"/>
<stop offset="0.21875" stop-color="rgb(19.985962%, 51.472473%, 76.834106%)" stop-opacity="1"/>
<stop offset="0.226562" stop-color="rgb(19.764709%, 51.393127%, 76.779175%)" stop-opacity="1"/>
<stop offset="0.234375" stop-color="rgb(19.543457%, 51.313782%, 76.722717%)" stop-opacity="1"/>
<stop offset="0.242187" stop-color="rgb(19.32373%, 51.234436%, 76.66626%)" stop-opacity="1"/>
<stop offset="0.25" stop-color="rgb(19.102478%, 51.156616%, 76.611328%)" stop-opacity="1"/>
<stop offset="0.257812" stop-color="rgb(18.882751%, 51.077271%, 76.554871%)" stop-opacity="1"/>
<stop offset="0.265625" stop-color="rgb(18.661499%, 50.997925%, 76.498413%)" stop-opacity="1"/>
<stop offset="0.273437" stop-color="rgb(18.440247%, 50.918579%, 76.443481%)" stop-opacity="1"/>
<stop offset="0.28125" stop-color="rgb(18.22052%, 50.839233%, 76.387024%)" stop-opacity="1"/>
<stop offset="0.289062" stop-color="rgb(17.999268%, 50.761414%, 76.330566%)" stop-opacity="1"/>
<stop offset="0.296875" stop-color="rgb(17.779541%, 50.682068%, 76.274109%)" stop-opacity="1"/>
<stop offset="0.304687" stop-color="rgb(17.558289%, 50.602722%, 76.219177%)" stop-opacity="1"/>
<stop offset="0.3125" stop-color="rgb(17.337036%, 50.523376%, 76.16272%)" stop-opacity="1"/>
<stop offset="0.320312" stop-color="rgb(17.11731%, 50.444031%, 76.106262%)" stop-opacity="1"/>
<stop offset="0.328125" stop-color="rgb(16.896057%, 50.366211%, 76.051331%)" stop-opacity="1"/>
<stop offset="0.335937" stop-color="rgb(16.674805%, 50.286865%, 75.994873%)" stop-opacity="1"/>
<stop offset="0.34375" stop-color="rgb(16.455078%, 50.20752%, 75.938416%)" stop-opacity="1"/>
<stop offset="0.351562" stop-color="rgb(16.233826%, 50.128174%, 75.883484%)" stop-opacity="1"/>
<stop offset="0.359375" stop-color="rgb(16.014099%, 50.048828%, 75.827026%)" stop-opacity="1"/>
<stop offset="0.367188" stop-color="rgb(15.792847%, 49.971008%, 75.770569%)" stop-opacity="1"/>
<stop offset="0.375" stop-color="rgb(15.571594%, 49.891663%, 75.715637%)" stop-opacity="1"/>
<stop offset="0.382812" stop-color="rgb(15.351868%, 49.812317%, 75.65918%)" stop-opacity="1"/>
<stop offset="0.390625" stop-color="rgb(15.130615%, 49.732971%, 75.602722%)" stop-opacity="1"/>
<stop offset="0.398438" stop-color="rgb(14.910889%, 49.653625%, 75.546265%)" stop-opacity="1"/>
<stop offset="0.40625" stop-color="rgb(14.689636%, 49.575806%, 75.491333%)" stop-opacity="1"/>
<stop offset="0.414062" stop-color="rgb(14.468384%, 49.49646%, 75.434875%)" stop-opacity="1"/>
<stop offset="0.421875" stop-color="rgb(14.248657%, 49.417114%, 75.378418%)" stop-opacity="1"/>
<stop offset="0.429687" stop-color="rgb(14.027405%, 49.337769%, 75.323486%)" stop-opacity="1"/>
<stop offset="0.4375" stop-color="rgb(13.807678%, 49.258423%, 75.267029%)" stop-opacity="1"/>
<stop offset="0.445312" stop-color="rgb(13.586426%, 49.180603%, 75.210571%)" stop-opacity="1"/>
<stop offset="0.453125" stop-color="rgb(13.365173%, 49.101257%, 75.15564%)" stop-opacity="1"/>
<stop offset="0.460937" stop-color="rgb(13.145447%, 49.021912%, 75.099182%)" stop-opacity="1"/>
<stop offset="0.46875" stop-color="rgb(12.924194%, 48.942566%, 75.042725%)" stop-opacity="1"/>
<stop offset="0.476562" stop-color="rgb(12.704468%, 48.86322%, 74.987793%)" stop-opacity="1"/>
<stop offset="0.484375" stop-color="rgb(12.483215%, 48.7854%, 74.931335%)" stop-opacity="1"/>
<stop offset="0.492188" stop-color="rgb(12.261963%, 48.706055%, 74.874878%)" stop-opacity="1"/>
<stop offset="0.5" stop-color="rgb(12.042236%, 48.626709%, 74.81842%)" stop-opacity="1"/>
<stop offset="0.507812" stop-color="rgb(11.820984%, 48.547363%, 74.763489%)" stop-opacity="1"/>
<stop offset="0.515625" stop-color="rgb(11.601257%, 48.468018%, 74.707031%)" stop-opacity="1"/>
<stop offset="0.523437" stop-color="rgb(11.380005%, 48.390198%, 74.650574%)" stop-opacity="1"/>
<stop offset="0.53125" stop-color="rgb(11.158752%, 48.310852%, 74.595642%)" stop-opacity="1"/>
<stop offset="0.539062" stop-color="rgb(10.939026%, 48.231506%, 74.539185%)" stop-opacity="1"/>
<stop offset="0.546875" stop-color="rgb(10.717773%, 48.152161%, 74.482727%)" stop-opacity="1"/>
<stop offset="0.554687" stop-color="rgb(10.498047%, 48.072815%, 74.427795%)" stop-opacity="1"/>
<stop offset="0.5625" stop-color="rgb(10.276794%, 47.994995%, 74.371338%)" stop-opacity="1"/>
<stop offset="0.570312" stop-color="rgb(10.055542%, 47.915649%, 74.31488%)" stop-opacity="1"/>
<stop offset="0.578125" stop-color="rgb(9.835815%, 47.836304%, 74.259949%)" stop-opacity="1"/>
<stop offset="0.585938" stop-color="rgb(9.614563%, 47.756958%, 74.203491%)" stop-opacity="1"/>
<stop offset="0.59375" stop-color="rgb(9.394836%, 47.677612%, 74.147034%)" stop-opacity="1"/>
<stop offset="0.601562" stop-color="rgb(9.173584%, 47.599792%, 74.092102%)" stop-opacity="1"/>
<stop offset="0.609375" stop-color="rgb(8.952332%, 47.520447%, 74.035645%)" stop-opacity="1"/>
<stop offset="0.617187" stop-color="rgb(8.732605%, 47.441101%, 73.979187%)" stop-opacity="1"/>
<stop offset="0.625" stop-color="rgb(8.511353%, 47.361755%, 73.922729%)" stop-opacity="1"/>
<stop offset="0.632812" stop-color="rgb(8.291626%, 47.28241%, 73.867798%)" stop-opacity="1"/>
<stop offset="0.640625" stop-color="rgb(8.070374%, 47.20459%, 73.81134%)" stop-opacity="1"/>
<stop offset="0.648438" stop-color="rgb(7.849121%, 47.125244%, 73.754883%)" stop-opacity="1"/>
<stop offset="0.65625" stop-color="rgb(7.629395%, 47.045898%, 73.699951%)" stop-opacity="1"/>
<stop offset="0.664062" stop-color="rgb(7.408142%, 46.966553%, 73.643494%)" stop-opacity="1"/>
<stop offset="0.671875" stop-color="rgb(7.188416%, 46.887207%, 73.587036%)" stop-opacity="1"/>
<stop offset="0.679687" stop-color="rgb(6.967163%, 46.809387%, 73.532104%)" stop-opacity="1"/>
<stop offset="0.6875" stop-color="rgb(6.745911%, 46.730042%, 73.475647%)" stop-opacity="1"/>
<stop offset="0.695312" stop-color="rgb(6.526184%, 46.650696%, 73.419189%)" stop-opacity="1"/>
<stop offset="0.703125" stop-color="rgb(6.304932%, 46.57135%, 73.364258%)" stop-opacity="1"/>
<stop offset="0.710938" stop-color="rgb(6.085205%, 46.49353%, 73.3078%)" stop-opacity="1"/>
<stop offset="0.71875" stop-color="rgb(5.863953%, 46.414185%, 73.251343%)" stop-opacity="1"/>
<stop offset="0.726562" stop-color="rgb(5.6427%, 46.334839%, 73.194885%)" stop-opacity="1"/>
<stop offset="0.734375" stop-color="rgb(5.422974%, 46.255493%, 73.139954%)" stop-opacity="1"/>
<stop offset="0.742187" stop-color="rgb(5.201721%, 46.176147%, 73.083496%)" stop-opacity="1"/>
<stop offset="0.75" stop-color="rgb(4.981995%, 46.098328%, 73.027039%)" stop-opacity="1"/>
<stop offset="0.757812" stop-color="rgb(4.760742%, 46.018982%, 72.972107%)" stop-opacity="1"/>
<stop offset="0.765625" stop-color="rgb(4.53949%, 45.939636%, 72.915649%)" stop-opacity="1"/>
<stop offset="0.773437" stop-color="rgb(4.319763%, 45.860291%, 72.859192%)" stop-opacity="1"/>
<stop offset="0.78125" stop-color="rgb(4.098511%, 45.780945%, 72.80426%)" stop-opacity="1"/>
<stop offset="0.789062" stop-color="rgb(3.878784%, 45.703125%, 72.747803%)" stop-opacity="1"/>
<stop offset="0.796875" stop-color="rgb(3.657532%, 45.623779%, 72.691345%)" stop-opacity="1"/>
<stop offset="0.804687" stop-color="rgb(3.436279%, 45.544434%, 72.636414%)" stop-opacity="1"/>
<stop offset="0.8125" stop-color="rgb(3.216553%, 45.465088%, 72.579956%)" stop-opacity="1"/>
<stop offset="0.820312" stop-color="rgb(2.9953%, 45.385742%, 72.523499%)" stop-opacity="1"/>
<stop offset="0.828125" stop-color="rgb(2.775574%, 45.307922%, 72.467041%)" stop-opacity="1"/>
<stop offset="0.835937" stop-color="rgb(2.554321%, 45.228577%, 72.412109%)" stop-opacity="1"/>
<stop offset="0.84375" stop-color="rgb(2.333069%, 45.149231%, 72.355652%)" stop-opacity="1"/>
<stop offset="0.851562" stop-color="rgb(2.113342%, 45.069885%, 72.299194%)" stop-opacity="1"/>
<stop offset="0.859375" stop-color="rgb(1.89209%, 44.99054%, 72.244263%)" stop-opacity="1"/>
<stop offset="0.867188" stop-color="rgb(1.672363%, 44.91272%, 72.187805%)" stop-opacity="1"/>
<stop offset="0.875" stop-color="rgb(1.451111%, 44.833374%, 72.131348%)" stop-opacity="1"/>
<stop offset="0.882812" stop-color="rgb(1.229858%, 44.754028%, 72.076416%)" stop-opacity="1"/>
<stop offset="0.890625" stop-color="rgb(1.010132%, 44.674683%, 72.019958%)" stop-opacity="1"/>
<stop offset="0.898437" stop-color="rgb(0.788879%, 44.595337%, 71.963501%)" stop-opacity="1"/>
<stop offset="0.90625" stop-color="rgb(0.569153%, 44.517517%, 71.908569%)" stop-opacity="1"/>
<stop offset="0.914062" stop-color="rgb(0.3479%, 44.438171%, 71.852112%)" stop-opacity="1"/>
<stop offset="0.921875" stop-color="rgb(0.126648%, 44.358826%, 71.795654%)" stop-opacity="1"/>
<stop offset="0.9375" stop-color="rgb(0.00762939%, 44.316101%, 71.765137%)" stop-opacity="1"/>
<stop offset="1" stop-color="rgb(0%, 44.313049%, 71.763611%)" stop-opacity="1"/>
</linearGradient>
<clipPath id="clip-8">
<path clip-rule="nonzero" d="M 371 0 L 1037 0 L 1037 849 L 371 849 Z M 371 0 "/>
</clipPath>
<clipPath id="clip-9">
<path clip-rule="evenodd" d="M 703.820312 848.089844 C 887.492188 848.089844 1036.398438 699.191406 1036.398438 515.511719 C 1036.398438 362.421875 852.191406 153.191406 763.429688 24.589844 C 730.636719 -8.199219 676.988281 -8.199219 644.195312 24.589844 C 555.433594 153.191406 371.222656 362.421875 371.222656 515.511719 C 371.222656 699.191406 520.132812 848.089844 703.820312 848.089844 "/>
</clipPath>
<linearGradient id="linear-pattern-4" gradientUnits="userSpaceOnUse" x1="-0.00399714" y1="0" x2="0.992081" y2="0" gradientTransform="matrix(-313.997, 966.386, -966.386, -313.997, 888.115, -43.91)">
<stop offset="0" stop-color="rgb(22.744751%, 53.33252%, 78.430176%)" stop-opacity="1"/>
<stop offset="0.015625" stop-color="rgb(22.853088%, 53.411865%, 78.477478%)" stop-opacity="1"/>
<stop offset="0.03125" stop-color="rgb(23.10791%, 53.598022%, 78.590393%)" stop-opacity="1"/>
<stop offset="0.046875" stop-color="rgb(23.400879%, 53.811646%, 78.718567%)" stop-opacity="1"/>
<stop offset="0.0625" stop-color="rgb(23.693848%, 54.025269%, 78.846741%)" stop-opacity="1"/>
<stop offset="0.078125" stop-color="rgb(23.986816%, 54.238892%, 78.974915%)" stop-opacity="1"/>
<stop offset="0.09375" stop-color="rgb(24.279785%, 54.452515%, 79.103088%)" stop-opacity="1"/>
<stop offset="0.109375" stop-color="rgb(24.572754%, 54.666138%, 79.231262%)" stop-opacity="1"/>
<stop offset="0.125" stop-color="rgb(24.865723%, 54.879761%, 79.359436%)" stop-opacity="1"/>
<stop offset="0.140625" stop-color="rgb(25.158691%, 55.093384%, 79.48761%)" stop-opacity="1"/>
<stop offset="0.15625" stop-color="rgb(25.45166%, 55.307007%, 79.615784%)" stop-opacity="1"/>
<stop offset="0.171875" stop-color="rgb(25.744629%, 55.52063%, 79.743958%)" stop-opacity="1"/>
<stop offset="0.1875" stop-color="rgb(26.037598%, 55.734253%, 79.872131%)" stop-opacity="1"/>
<stop offset="0.203125" stop-color="rgb(26.330566%, 55.947876%, 80.000305%)" stop-opacity="1"/>
<stop offset="0.21875" stop-color="rgb(26.623535%, 56.161499%, 80.128479%)" stop-opacity="1"/>
<stop offset="0.234375" stop-color="rgb(26.916504%, 56.375122%, 80.256653%)" stop-opacity="1"/>
<stop offset="0.25" stop-color="rgb(27.209473%, 56.588745%, 80.384827%)" stop-opacity="1"/>
<stop offset="0.265625" stop-color="rgb(27.502441%, 56.802368%, 80.513%)" stop-opacity="1"/>
<stop offset="0.28125" stop-color="rgb(27.79541%, 57.015991%, 80.641174%)" stop-opacity="1"/>
<stop offset="0.296875" stop-color="rgb(28.088379%, 57.229614%, 80.769348%)" stop-opacity="1"/>
<stop offset="0.3125" stop-color="rgb(28.381348%, 57.443237%, 80.897522%)" stop-opacity="1"/>
<stop offset="0.328125" stop-color="rgb(28.674316%, 57.65686%, 81.025696%)" stop-opacity="1"/>
<stop offset="0.34375" stop-color="rgb(28.967285%, 57.870483%, 81.15387%)" stop-opacity="1"/>
<stop offset="0.359375" stop-color="rgb(29.260254%, 58.084106%, 81.282043%)" stop-opacity="1"/>
<stop offset="0.375" stop-color="rgb(29.553223%, 58.297729%, 81.410217%)" stop-opacity="1"/>
<stop offset="0.390625" stop-color="rgb(29.846191%, 58.511353%, 81.538391%)" stop-opacity="1"/>
<stop offset="0.40625" stop-color="rgb(30.13916%, 58.724976%, 81.666565%)" stop-opacity="1"/>
<stop offset="0.421875" stop-color="rgb(30.432129%, 58.938599%, 81.794739%)" stop-opacity="1"/>
<stop offset="0.4375" stop-color="rgb(30.725098%, 59.152222%, 81.922913%)" stop-opacity="1"/>
<stop offset="0.453125" stop-color="rgb(31.018066%, 59.365845%, 82.051086%)" stop-opacity="1"/>
<stop offset="0.46875" stop-color="rgb(31.311035%, 59.579468%, 82.17926%)" stop-opacity="1"/>
<stop offset="0.484375" stop-color="rgb(31.604004%, 59.793091%, 82.307434%)" stop-opacity="1"/>
<stop offset="0.5" stop-color="rgb(31.896973%, 60.006714%, 82.435608%)" stop-opacity="1"/>
<stop offset="0.515625" stop-color="rgb(32.189941%, 60.220337%, 82.563782%)" stop-opacity="1"/>
<stop offset="0.53125" stop-color="rgb(32.48291%, 60.43396%, 82.691956%)" stop-opacity="1"/>
<stop offset="0.546875" stop-color="rgb(32.775879%, 60.647583%, 82.820129%)" stop-opacity="1"/>
<stop offset="0.5625" stop-color="rgb(33.068848%, 60.861206%, 82.948303%)" stop-opacity="1"/>
<stop offset="0.578125" stop-color="rgb(33.361816%, 61.074829%, 83.076477%)" stop-opacity="1"/>
<stop offset="0.59375" stop-color="rgb(33.654785%, 61.288452%, 83.204651%)" stop-opacity="1"/>
<stop offset="0.609375" stop-color="rgb(33.947754%, 61.502075%, 83.332825%)" stop-opacity="1"/>
<stop offset="0.625" stop-color="rgb(34.240723%, 61.715698%, 83.460999%)" stop-opacity="1"/>
<stop offset="0.640625" stop-color="rgb(34.533691%, 61.929321%, 83.589172%)" stop-opacity="1"/>
<stop offset="0.65625" stop-color="rgb(34.82666%, 62.142944%, 83.717346%)" stop-opacity="1"/>
<stop offset="0.671875" stop-color="rgb(35.119629%, 62.356567%, 83.84552%)" stop-opacity="1"/>
<stop offset="0.6875" stop-color="rgb(35.412598%, 62.57019%, 83.973694%)" stop-opacity="1"/>
<stop offset="0.703125" stop-color="rgb(35.705566%, 62.783813%, 84.101868%)" stop-opacity="1"/>
<stop offset="0.71875" stop-color="rgb(35.998535%, 62.997437%, 84.230042%)" stop-opacity="1"/>
<stop offset="0.734375" stop-color="rgb(36.291504%, 63.21106%, 84.358215%)" stop-opacity="1"/>
<stop offset="0.75" stop-color="rgb(36.584473%, 63.424683%, 84.486389%)" stop-opacity="1"/>
<stop offset="0.765625" stop-color="rgb(36.877441%, 63.638306%, 84.614563%)" stop-opacity="1"/>
<stop offset="0.78125" stop-color="rgb(37.17041%, 63.851929%, 84.742737%)" stop-opacity="1"/>
<stop offset="0.796875" stop-color="rgb(37.463379%, 64.065552%, 84.870911%)" stop-opacity="1"/>
<stop offset="0.8125" stop-color="rgb(37.756348%, 64.279175%, 84.999084%)" stop-opacity="1"/>
<stop offset="0.828125" stop-color="rgb(38.049316%, 64.492798%, 85.127258%)" stop-opacity="1"/>
<stop offset="0.84375" stop-color="rgb(38.342285%, 64.706421%, 85.255432%)" stop-opacity="1"/>
<stop offset="0.859375" stop-color="rgb(38.635254%, 64.920044%, 85.383606%)" stop-opacity="1"/>
<stop offset="0.875" stop-color="rgb(38.928223%, 65.133667%, 85.51178%)" stop-opacity="1"/>
<stop offset="0.890625" stop-color="rgb(39.221191%, 65.34729%, 85.639954%)" stop-opacity="1"/>
<stop offset="0.90625" stop-color="rgb(39.51416%, 65.560913%, 85.768127%)" stop-opacity="1"/>
<stop offset="0.921875" stop-color="rgb(39.807129%, 65.774536%, 85.896301%)" stop-opacity="1"/>
<stop offset="0.9375" stop-color="rgb(40.100098%, 65.988159%, 86.024475%)" stop-opacity="1"/>
<stop offset="0.953125" stop-color="rgb(40.393066%, 66.201782%, 86.152649%)" stop-opacity="1"/>
<stop offset="0.96875" stop-color="rgb(40.686035%, 66.415405%, 86.280823%)" stop-opacity="1"/>
<stop offset="0.984375" stop-color="rgb(40.979004%, 66.629028%, 86.408997%)" stop-opacity="1"/>
<stop offset="1" stop-color="rgb(41.271973%, 66.842651%, 86.53717%)" stop-opacity="1"/>
</linearGradient>
<clipPath id="clip-10">
<path clip-rule="nonzero" d="M 2200 0 L 2866 0 L 2866 849 L 2200 849 Z M 2200 0 "/>
</clipPath>
<clipPath id="clip-11">
<path clip-rule="evenodd" d="M 2532.941406 848.089844 C 2716.609375 848.089844 2865.511719 699.191406 2865.511719 515.511719 C 2865.511719 362.421875 2681.308594 153.191406 2592.558594 24.589844 C 2559.75 -8.199219 2506.089844 -8.199219 2473.320312 24.589844 C 2384.570312 153.191406 2200.339844 362.421875 2200.339844 515.511719 C 2200.339844 699.191406 2349.238281 848.089844 2532.941406 848.089844 "/>
</clipPath>
<linearGradient id="linear-pattern-5" gradientUnits="userSpaceOnUse" x1="-0.00399567" y1="0" x2="0.992077" y2="0" gradientTransform="matrix(-313.998, 966.388, -966.388, -313.998, 2717.23, -43.91)">
<stop offset="0" stop-color="rgb(22.744751%, 53.33252%, 78.430176%)" stop-opacity="1"/>
<stop offset="0.015625" stop-color="rgb(22.853088%, 53.411865%, 78.477478%)" stop-opacity="1"/>
<stop offset="0.03125" stop-color="rgb(23.10791%, 53.598022%, 78.590393%)" stop-opacity="1"/>
<stop offset="0.046875" stop-color="rgb(23.400879%, 53.811646%, 78.718567%)" stop-opacity="1"/>
<stop offset="0.0625" stop-color="rgb(23.693848%, 54.025269%, 78.846741%)" stop-opacity="1"/>
<stop offset="0.078125" stop-color="rgb(23.986816%, 54.238892%, 78.974915%)" stop-opacity="1"/>
<stop offset="0.09375" stop-color="rgb(24.279785%, 54.452515%, 79.103088%)" stop-opacity="1"/>
<stop offset="0.109375" stop-color="rgb(24.572754%, 54.666138%, 79.231262%)" stop-opacity="1"/>
<stop offset="0.125" stop-color="rgb(24.865723%, 54.879761%, 79.359436%)" stop-opacity="1"/>
<stop offset="0.140625" stop-color="rgb(25.158691%, 55.093384%, 79.48761%)" stop-opacity="1"/>
<stop offset="0.15625" stop-color="rgb(25.45166%, 55.307007%, 79.615784%)" stop-opacity="1"/>
<stop offset="0.171875" stop-color="rgb(25.744629%, 55.52063%, 79.743958%)" stop-opacity="1"/>
<stop offset="0.1875" stop-color="rgb(26.037598%, 55.734253%, 79.872131%)" stop-opacity="1"/>
<stop offset="0.203125" stop-color="rgb(26.330566%, 55.947876%, 80.000305%)" stop-opacity="1"/>
<stop offset="0.21875" stop-color="rgb(26.623535%, 56.161499%, 80.128479%)" stop-opacity="1"/>
<stop offset="0.234375" stop-color="rgb(26.916504%, 56.375122%, 80.256653%)" stop-opacity="1"/>
<stop offset="0.25" stop-color="rgb(27.209473%, 56.588745%, 80.384827%)" stop-opacity="1"/>
<stop offset="0.265625" stop-color="rgb(27.502441%, 56.802368%, 80.513%)" stop-opacity="1"/>
<stop offset="0.28125" stop-color="rgb(27.79541%, 57.015991%, 80.641174%)" stop-opacity="1"/>
<stop offset="0.296875" stop-color="rgb(28.088379%, 57.229614%, 80.769348%)" stop-opacity="1"/>
<stop offset="0.3125" stop-color="rgb(28.381348%, 57.443237%, 80.897522%)" stop-opacity="1"/>
<stop offset="0.328125" stop-color="rgb(28.674316%, 57.65686%, 81.025696%)" stop-opacity="1"/>
<stop offset="0.34375" stop-color="rgb(28.967285%, 57.870483%, 81.15387%)" stop-opacity="1"/>
<stop offset="0.359375" stop-color="rgb(29.260254%, 58.084106%, 81.282043%)" stop-opacity="1"/>
<stop offset="0.375" stop-color="rgb(29.553223%, 58.297729%, 81.410217%)" stop-opacity="1"/>
<stop offset="0.390625" stop-color="rgb(29.846191%, 58.511353%, 81.538391%)" stop-opacity="1"/>
<stop offset="0.40625" stop-color="rgb(30.13916%, 58.724976%, 81.666565%)" stop-opacity="1"/>
<stop offset="0.421875" stop-color="rgb(30.432129%, 58.938599%, 81.794739%)" stop-opacity="1"/>
<stop offset="0.4375" stop-color="rgb(30.725098%, 59.152222%, 81.922913%)" stop-opacity="1"/>
<stop offset="0.453125" stop-color="rgb(31.018066%, 59.365845%, 82.051086%)" stop-opacity="1"/>
<stop offset="0.46875" stop-color="rgb(31.311035%, 59.579468%, 82.17926%)" stop-opacity="1"/>
<stop offset="0.484375" stop-color="rgb(31.604004%, 59.793091%, 82.307434%)" stop-opacity="1"/>
<stop offset="0.5" stop-color="rgb(31.896973%, 60.006714%, 82.435608%)" stop-opacity="1"/>
<stop offset="0.515625" stop-color="rgb(32.189941%, 60.220337%, 82.563782%)" stop-opacity="1"/>
<stop offset="0.53125" stop-color="rgb(32.48291%, 60.43396%, 82.691956%)" stop-opacity="1"/>
<stop offset="0.546875" stop-color="rgb(32.775879%, 60.647583%, 82.820129%)" stop-opacity="1"/>
<stop offset="0.5625" stop-color="rgb(33.068848%, 60.861206%, 82.948303%)" stop-opacity="1"/>
<stop offset="0.578125" stop-color="rgb(33.361816%, 61.074829%, 83.076477%)" stop-opacity="1"/>
<stop offset="0.59375" stop-color="rgb(33.654785%, 61.288452%, 83.204651%)" stop-opacity="1"/>
<stop offset="0.609375" stop-color="rgb(33.947754%, 61.502075%, 83.332825%)" stop-opacity="1"/>
<stop offset="0.625" stop-color="rgb(34.240723%, 61.715698%, 83.460999%)" stop-opacity="1"/>
<stop offset="0.640625" stop-color="rgb(34.533691%, 61.929321%, 83.589172%)" stop-opacity="1"/>
<stop offset="0.65625" stop-color="rgb(34.82666%, 62.142944%, 83.717346%)" stop-opacity="1"/>
<stop offset="0.671875" stop-color="rgb(35.119629%, 62.356567%, 83.84552%)" stop-opacity="1"/>
<stop offset="0.6875" stop-color="rgb(35.412598%, 62.57019%, 83.973694%)" stop-opacity="1"/>
<stop offset="0.703125" stop-color="rgb(35.705566%, 62.783813%, 84.101868%)" stop-opacity="1"/>
<stop offset="0.71875" stop-color="rgb(35.998535%, 62.997437%, 84.230042%)" stop-opacity="1"/>
<stop offset="0.734375" stop-color="rgb(36.291504%, 63.21106%, 84.358215%)" stop-opacity="1"/>
<stop offset="0.75" stop-color="rgb(36.584473%, 63.424683%, 84.486389%)" stop-opacity="1"/>
<stop offset="0.765625" stop-color="rgb(36.877441%, 63.638306%, 84.614563%)" stop-opacity="1"/>
<stop offset="0.78125" stop-color="rgb(37.17041%, 63.851929%, 84.742737%)" stop-opacity="1"/>
<stop offset="0.796875" stop-color="rgb(37.463379%, 64.065552%, 84.870911%)" stop-opacity="1"/>
<stop offset="0.8125" stop-color="rgb(37.756348%, 64.279175%, 84.999084%)" stop-opacity="1"/>
<stop offset="0.828125" stop-color="rgb(38.049316%, 64.492798%, 85.127258%)" stop-opacity="1"/>
<stop offset="0.84375" stop-color="rgb(38.342285%, 64.706421%, 85.255432%)" stop-opacity="1"/>
<stop offset="0.859375" stop-color="rgb(38.635254%, 64.920044%, 85.383606%)" stop-opacity="1"/>
<stop offset="0.875" stop-color="rgb(38.928223%, 65.133667%, 85.51178%)" stop-opacity="1"/>
<stop offset="0.890625" stop-color="rgb(39.221191%, 65.34729%, 85.639954%)" stop-opacity="1"/>
<stop offset="0.90625" stop-color="rgb(39.51416%, 65.560913%, 85.768127%)" stop-opacity="1"/>
<stop offset="0.921875" stop-color="rgb(39.807129%, 65.774536%, 85.896301%)" stop-opacity="1"/>
<stop offset="0.9375" stop-color="rgb(40.100098%, 65.988159%, 86.024475%)" stop-opacity="1"/>
<stop offset="0.953125" stop-color="rgb(40.393066%, 66.201782%, 86.152649%)" stop-opacity="1"/>
<stop offset="0.96875" stop-color="rgb(40.686035%, 66.415405%, 86.280823%)" stop-opacity="1"/>
<stop offset="0.984375" stop-color="rgb(40.979004%, 66.629028%, 86.408997%)" stop-opacity="1"/>
<stop offset="1" stop-color="rgb(41.271973%, 66.842651%, 86.53717%)" stop-opacity="1"/>
</linearGradient>
</defs>
<g clip-path="url(#clip-0)">
<g clip-path="url(#clip-1)">
<path fill-rule="nonzero" fill="url(#linear-pattern-0)" d="M 3305.980469 2156.386719 L 309.078125 1182.640625 L -69.242188 2346.992188 L 2927.660156 3320.742188 Z M 3305.980469 2156.386719 "/>
</g>
</g>
<g clip-path="url(#clip-2)">
<g clip-path="url(#clip-3)">
<path fill-rule="nonzero" fill="url(#linear-pattern-1)" d="M -84.738281 2637.589844 L 494.15625 4001.378906 L 3321.476562 2801.25 L 2742.582031 1437.460938 Z M -84.738281 2637.589844 "/>
</g>
</g>
<g clip-path="url(#clip-4)">
<g clip-path="url(#clip-5)">
<path fill-rule="nonzero" fill="url(#linear-pattern-2)" d="M 3305.980469 3091.847656 L 309.082031 2118.097656 L -69.242188 3282.453125 L 2927.660156 4256.203125 Z M 3305.980469 3091.847656 "/>
</g>
</g>
<g clip-path="url(#clip-6)">
<g clip-path="url(#clip-7)">
<path fill-rule="nonzero" fill="url(#linear-pattern-3)" d="M 442.25 496.648438 L 1194.179688 2268.074219 L 2794.492188 1588.78125 L 2042.5625 -182.644531 Z M 442.25 496.648438 "/>
</g>
</g>
<g clip-path="url(#clip-8)">
<g clip-path="url(#clip-9)">
<path fill-rule="nonzero" fill="url(#linear-pattern-4)" d="M 1285.648438 80.984375 L 434.738281 -195.492188 L 121.972656 767.105469 L 972.882812 1043.582031 Z M 1285.648438 80.984375 "/>
</g>
</g>
<g clip-path="url(#clip-10)">
<g clip-path="url(#clip-11)">
<path fill-rule="nonzero" fill="url(#linear-pattern-5)" d="M 3114.757812 80.984375 L 2263.859375 -195.488281 L 1951.09375 767.105469 L 2801.992188 1043.578125 Z M 3114.757812 80.984375 "/>
</g>
</g>
</svg>
